<?xml version="1.0" encoding="utf-8"?>
<!-- Generator: Adobe Illustrator 23.0.1, SVG Export Plug-In . SVG Version: 6.00 Build 0)  -->
<svg version="1.1" id="Layer_1" xmlns="http://www.w3.org/2000/svg" xmlns:xlink="http://www.w3.org/1999/xlink" x="0px" y="0px"
	 viewBox="0 0 1264 481" style="enable-background:new 0 0 1264 481;" xml:space="preserve">
<style type="text/css">
	.st0{clip-path:url(#SVGID_2_);}
	.st1{fill-rule:evenodd;clip-rule:evenodd;fill:#FFFFFF;stroke:#2F528F;stroke-width:1.3333;stroke-miterlimit:8;}
	.st2{font-family:'ArialMT';}
	.st3{font-size:24px;}
	.st4{fill:none;stroke:#262626;stroke-width:0.6667;stroke-miterlimit:8;}
	.st5{fill:#262626;}
	.st6{fill-rule:evenodd;clip-rule:evenodd;fill:#9DC3E6;}
	.st7{fill:#FFFFFF;}
	.st8{font-family:'MyriadPro-Regular';}
	.st9{font-size:14px;}
	.st10{fill-rule:evenodd;clip-rule:evenodd;fill:#FFE699;}
	.st11{fill:#F4B183;}
	.st12{fill-rule:evenodd;clip-rule:evenodd;fill:#C55A11;}
	.st13{fill-rule:evenodd;clip-rule:evenodd;fill:#333F50;}
	.st14{fill-rule:evenodd;clip-rule:evenodd;fill:#548235;}
	.st15{font-size:15px;}
	.st16{font-size:16px;}
	.st17{font-size:13px;}
	.st18{font-size:11px;}
	.st19{font-size:12px;}
	.st20{font-size:10px;}
</style>
<g>
	<defs>
		<rect id="SVGID_1_" y="-65" width="1280" height="720"/>
	</defs>
	<clipPath id="SVGID_2_">
		<use xlink:href="#SVGID_1_"  style="overflow:visible;"/>
	</clipPath>
	<g class="st0">
		<path class="st1" d="M0.5,229.8c0-10.1,8.2-18.3,18.3-18.3h73.3c10.1,0,18.3,8.2,18.3,18.3v73.3c0,10.1-8.2,18.3-18.3,18.3H18.8
			c-10.1,0-18.3-8.2-18.3-18.3V229.8z"/>
		<text transform="matrix(1 0 0 1 21.4085 273.064)" class="st2 st3">Image</text>
		<path class="st4" d="M110.5,266.5h108"/>
		<path class="st4" d="M218.5,150.5v116"/>
		<path class="st5" d="M218.5,150.2h99.3v0.7h-99.3V150.2z M316.5,146.5l8,4l-8,4V146.5z"/>
		<path class="st5" d="M218.5,381.2h99.3v0.7h-99.3V381.2z M316.5,377.5l8,4l-8,4V377.5z"/>
		<path class="st4" d="M218.5,264.5v117"/>
		<path class="st6" d="M324,117h73l33,33l-33,33h-73V117z"/>
		<text transform="matrix(1 0 0 1 334.4087 154.5497)" class="st7 st8 st9">Faster R-CNN</text>
		<path class="st10" d="M475,44c0-1.7,1.3-3,3-3h12c1.7,0,3,1.3,3,3v12c0,1.7-1.3,3-3,3h-12c-1.7,0-3-1.3-3-3V44z"/>
		<path class="st10" d="M475,73c0-1.7,1.3-3,3-3h12c1.7,0,3,1.3,3,3v12c0,1.7-1.3,3-3,3h-12c-1.7,0-3-1.3-3-3V73z"/>
		<path class="st10" d="M475,102c0-1.7,1.3-3,3-3h12c1.7,0,3,1.3,3,3v12c0,1.7-1.3,3-3,3h-12c-1.7,0-3-1.3-3-3V102z"/>
		<path class="st10" d="M475,131c0-1.7,1.3-3,3-3h12c1.7,0,3,1.3,3,3v12c0,1.7-1.3,3-3,3h-12c-1.7,0-3-1.3-3-3V131z"/>
		<path class="st10" d="M475,160c0-1.7,1.3-3,3-3h12c1.7,0,3,1.3,3,3v12c0,1.7-1.3,3-3,3h-12c-1.7,0-3-1.3-3-3V160z"/>
		<path class="st10" d="M475,189c0-1.7,1.3-3,3-3h12c1.7,0,3,1.3,3,3v12c0,1.7-1.3,3-3,3h-12c-1.7,0-3-1.3-3-3V189z"/>
		<path class="st10" d="M475,218c0-1.7,1.3-3,3-3h12c1.7,0,3,1.3,3,3v12c0,1.7-1.3,3-3,3h-12c-1.7,0-3-1.3-3-3V218z"/>
		<path class="st10" d="M475,15c0-1.7,1.3-3,3-3h12c1.7,0,3,1.3,3,3v12c0,1.7-1.3,3-3,3h-12c-1.7,0-3-1.3-3-3V15z"/>
		<path class="st10" d="M475,247c0-1.7,1.3-3,3-3h12c1.7,0,3,1.3,3,3v12c0,1.7-1.3,3-3,3h-12c-1.7,0-3-1.3-3-3V247z"/>
		<path class="st10" d="M475,276c0-1.7,1.3-3,3-3h12c1.7,0,3,1.3,3,3v12c0,1.7-1.3,3-3,3h-12c-1.7,0-3-1.3-3-3V276z"/>
		<path class="st5" d="M430.8,150.4l42.3-93.7l-0.6-0.3l-42.3,93.7L430.8,150.4z M475.9,59.4l-0.4-8.9l-6.9,5.6L475.9,59.4z"/>
		<path class="st5" d="M430.8,150.5l41.4-65.2l-0.6-0.4l-41.4,65.2L430.8,150.5z M474.6,88.4l0.9-8.9l-7.7,4.6L474.6,88.4z"/>
		<path class="st5" d="M430.7,150.6l40.1-37.3l-0.5-0.5l-40.1,37.3L430.7,150.6z M472.4,116.9l3.1-8.4l-8.6,2.5L472.4,116.9z"/>
		<path class="st5" d="M430.6,150.7l38.6-11L469,139l-38.6,11L430.6,150.7z M468.9,143.5l6.6-6l-8.8-1.6L468.9,143.5z"/>
		<path class="st5" d="M430.8,150.4l42.8,122.5l-0.6,0.2l-42.8-122.5L430.8,150.4z M476.6,270.4l-1.1,8.9l-6.4-6.2L476.6,270.4z"/>
		<path class="st5" d="M430.8,150.4l42.3,93.7l-0.6,0.3l-42.3-93.7L430.8,150.4z M475.9,241.3l-0.4,8.9l-6.9-5.6L475.9,241.3z"/>
		<path class="st5" d="M430.8,150.3l41.4,65.2l-0.6,0.4l-41.4-65.2L430.8,150.3z M474.6,212.4l0.9,8.9l-7.7-4.6L474.6,212.4z"/>
		<path class="st5" d="M430.7,150.3l40.1,37.3l-0.5,0.5l-40.1-37.3L430.7,150.3z M472.4,184l3.1,8.4l-8.6-2.5L472.4,184z"/>
		<path class="st5" d="M430.6,150.2l38.6,11l-0.2,0.6l-38.6-11L430.6,150.2z M468.9,157.3l6.6,6l-8.8,1.6L468.9,157.3z"/>
		<rect x="520" y="41" class="st11" width="74" height="18"/>
		<text transform="matrix(1 0 0 1 540.001 56)" class="st7 st2 st9">CNN</text>
		<rect x="520" y="70" class="st11" width="74" height="18"/>
		<text transform="matrix(1 0 0 1 540.001 85)" class="st7 st2 st9">CNN</text>
		<rect x="520" y="100" class="st11" width="74" height="18"/>
		<text transform="matrix(1 0 0 1 540.001 115)" class="st7 st2 st9">CNN</text>
		<rect x="520" y="128" class="st11" width="74" height="18"/>
		<text transform="matrix(1 0 0 1 540.001 143)" class="st7 st2 st9">CNN</text>
		<rect x="520" y="11" class="st11" width="74" height="18"/>
		<text transform="matrix(1 0 0 1 540 26)" class="st7 st2 st9">CNN</text>
		<rect x="520" y="157" class="st11" width="74" height="18"/>
		<text transform="matrix(1 0 0 1 540.001 172)" class="st7 st2 st9">CNN</text>
		<rect x="520" y="186" class="st11" width="74" height="18"/>
		<text transform="matrix(1 0 0 1 540.001 201)" class="st7 st2 st9">CNN</text>
		<rect x="520" y="215" class="st11" width="74" height="18"/>
		<text transform="matrix(1 0 0 1 540.001 230)" class="st7 st2 st9">CNN</text>
		<rect x="520" y="244" class="st11" width="74" height="18"/>
		<text transform="matrix(1 0 0 1 540.001 259)" class="st7 st2 st9">CNN</text>
		<rect x="520" y="273" class="st11" width="74" height="18"/>
		<text transform="matrix(1 0 0 1 540.001 288)" class="st7 st2 st9">CNN</text>
		<path class="st5" d="M493.5,21.6l20.3-0.6l0-0.7l-20.3,0.6L493.5,21.6z M512.6,24.7l7.9-4.2l-8.1-3.8L512.6,24.7z"/>
		<path class="st5" d="M493.5,49.2h20.3v0.7h-20.3V49.2z M512.5,45.5l8,4l-8,4V45.5z"/>
		<path class="st5" d="M493.5,79.2h20.3v0.7h-20.3V79.2z M512.5,75.5l8,4l-8,4V75.5z"/>
		<path class="st5" d="M493.5,108.2h20.3v0.7h-20.3V108.2z M512.5,104.5l8,4l-8,4V104.5z"/>
		<path class="st5" d="M493.5,137.2h20.3v0.7h-20.3V137.2z M512.5,133.5l8,4l-8,4V133.5z"/>
		<path class="st5" d="M492.5,166.2h20.3v0.7h-20.3V166.2z M511.5,162.5l8,4l-8,4V162.5z"/>
		<path class="st5" d="M492.5,195.2h20.3v0.7h-20.3V195.2z M511.5,191.5l8,4l-8,4V191.5z"/>
		<path class="st5" d="M493.5,224.2h20.3v0.7h-20.3V224.2z M512.5,220.5l8,4l-8,4V220.5z"/>
		<path class="st5" d="M493.5,253.2h20.3v0.7h-20.3V253.2z M512.5,249.5l8,4l-8,4V249.5z"/>
		<path class="st5" d="M494.5,282.2h20.3v0.7h-20.3V282.2z M513.5,278.5l8,4l-8,4V278.5z"/>
		<path class="st5" d="M594.5,21.2l20.3,0v0.7l-20.3,0V21.2z M613.5,17.5l8,4l-8,4V17.5z"/>
		<path class="st5" d="M594.5,49.2h20.3v0.7h-20.3V49.2z M613.5,45.5l8,4l-8,4V45.5z"/>
		<path class="st5" d="M594.5,79.2h20.3v0.7h-20.3V79.2z M613.5,75.5l8,4l-8,4V75.5z"/>
		<path class="st5" d="M594.5,108.2h20.3v0.7h-20.3V108.2z M613.5,104.5l8,4l-8,4V104.5z"/>
		<path class="st5" d="M594.5,137.2h20.3v0.7h-20.3V137.2z M613.5,133.5l8,4l-8,4V133.5z"/>
		<path class="st5" d="M594.5,166.2h20.3v0.7h-20.3V166.2z M613.5,162.5l8,4l-8,4V162.5z"/>
		<path class="st5" d="M594.5,195.2h20.3v0.7h-20.3V195.2z M613.5,191.5l8,4l-8,4V191.5z"/>
		<path class="st5" d="M594.5,224.2h20.3v0.7h-20.3V224.2z M613.5,220.5l8,4l-8,4V220.5z"/>
		<path class="st5" d="M594.5,253.2h20.3v0.7h-20.3V253.2z M613.5,249.5l8,4l-8,4V249.5z"/>
		<path class="st5" d="M594.5,282.2h20.3v0.7h-20.3V282.2z M613.5,278.5l8,4l-8,4V278.5z"/>
		<path class="st12" d="M631,20.5c0-3,2.5-5.5,5.5-5.5s5.5,2.5,5.5,5.5s-2.5,5.5-5.5,5.5S631,23.5,631,20.5z"/>
		<path class="st12" d="M644,20.5c0-3,2.5-5.5,5.5-5.5s5.5,2.5,5.5,5.5s-2.5,5.5-5.5,5.5S644,23.5,644,20.5z"/>
		<path class="st12" d="M657,20.5c0-3,2.5-5.5,5.5-5.5s5.5,2.5,5.5,5.5s-2.5,5.5-5.5,5.5S657,23.5,657,20.5z"/>
		<path class="st12" d="M670,20.5c0-3,2.5-5.5,5.5-5.5s5.5,2.5,5.5,5.5s-2.5,5.5-5.5,5.5S670,23.5,670,20.5z"/>
		<path class="st12" d="M631,48.5c0-3,2.5-5.5,5.5-5.5s5.5,2.5,5.5,5.5s-2.5,5.5-5.5,5.5S631,51.5,631,48.5z"/>
		<path class="st12" d="M644,48.5c0-3,2.5-5.5,5.5-5.5s5.5,2.5,5.5,5.5s-2.5,5.5-5.5,5.5S644,51.5,644,48.5z"/>
		<path class="st12" d="M657,48.5c0-3,2.5-5.5,5.5-5.5s5.5,2.5,5.5,5.5s-2.5,5.5-5.5,5.5S657,51.5,657,48.5z"/>
		<path class="st12" d="M670,48.5c0-3,2.5-5.5,5.5-5.5s5.5,2.5,5.5,5.5s-2.5,5.5-5.5,5.5S670,51.5,670,48.5z"/>
		<path class="st12" d="M631,79.5c0-3,2.5-5.5,5.5-5.5s5.5,2.5,5.5,5.5s-2.5,5.5-5.5,5.5S631,82.5,631,79.5z"/>
		<path class="st12" d="M644,79.5c0-3,2.5-5.5,5.5-5.5s5.5,2.5,5.5,5.5s-2.5,5.5-5.5,5.5S644,82.5,644,79.5z"/>
		<path class="st12" d="M657,79.5c0-3,2.5-5.5,5.5-5.5s5.5,2.5,5.5,5.5s-2.5,5.5-5.5,5.5S657,82.5,657,79.5z"/>
		<path class="st12" d="M670,79.5c0-3,2.5-5.5,5.5-5.5s5.5,2.5,5.5,5.5s-2.5,5.5-5.5,5.5S670,82.5,670,79.5z"/>
		<path class="st12" d="M631,109.5c0-3,2.5-5.5,5.5-5.5s5.5,2.5,5.5,5.5s-2.5,5.5-5.5,5.5S631,112.5,631,109.5z"/>
		<path class="st12" d="M644,109.5c0-3,2.5-5.5,5.5-5.5s5.5,2.5,5.5,5.5s-2.5,5.5-5.5,5.5S644,112.5,644,109.5z"/>
		<path class="st12" d="M657,109.5c0-3,2.5-5.5,5.5-5.5s5.5,2.5,5.5,5.5s-2.5,5.5-5.5,5.5S657,112.5,657,109.5z"/>
		<path class="st12" d="M670,109.5c0-3,2.5-5.5,5.5-5.5s5.5,2.5,5.5,5.5s-2.5,5.5-5.5,5.5S670,112.5,670,109.5z"/>
		<path class="st12" d="M631,137.5c0-3,2.5-5.5,5.5-5.5s5.5,2.5,5.5,5.5s-2.5,5.5-5.5,5.5S631,140.5,631,137.5z"/>
		<path class="st12" d="M644,137.5c0-3,2.5-5.5,5.5-5.5s5.5,2.5,5.5,5.5s-2.5,5.5-5.5,5.5S644,140.5,644,137.5z"/>
		<path class="st12" d="M657,137.5c0-3,2.5-5.5,5.5-5.5s5.5,2.5,5.5,5.5s-2.5,5.5-5.5,5.5S657,140.5,657,137.5z"/>
		<path class="st12" d="M670,137.5c0-3,2.5-5.5,5.5-5.5s5.5,2.5,5.5,5.5s-2.5,5.5-5.5,5.5S670,140.5,670,137.5z"/>
		<path class="st12" d="M631,166.5c0-3,2.5-5.5,5.5-5.5s5.5,2.5,5.5,5.5s-2.5,5.5-5.5,5.5S631,169.5,631,166.5z"/>
		<path class="st12" d="M644,166.5c0-3,2.5-5.5,5.5-5.5s5.5,2.5,5.5,5.5s-2.5,5.5-5.5,5.5S644,169.5,644,166.5z"/>
		<path class="st12" d="M657,166.5c0-3,2.5-5.5,5.5-5.5s5.5,2.5,5.5,5.5s-2.5,5.5-5.5,5.5S657,169.5,657,166.5z"/>
		<path class="st12" d="M670,166.5c0-3,2.5-5.5,5.5-5.5s5.5,2.5,5.5,5.5s-2.5,5.5-5.5,5.5S670,169.5,670,166.5z"/>
		<path class="st12" d="M631,195.5c0-3,2.5-5.5,5.5-5.5s5.5,2.5,5.5,5.5s-2.5,5.5-5.5,5.5S631,198.5,631,195.5z"/>
		<path class="st12" d="M644,195.5c0-3,2.5-5.5,5.5-5.5s5.5,2.5,5.5,5.5s-2.5,5.5-5.5,5.5S644,198.5,644,195.5z"/>
		<path class="st12" d="M657,195.5c0-3,2.5-5.5,5.5-5.5s5.5,2.5,5.5,5.5s-2.5,5.5-5.5,5.5S657,198.5,657,195.5z"/>
		<path class="st12" d="M670,195.5c0-3,2.5-5.5,5.5-5.5s5.5,2.5,5.5,5.5s-2.5,5.5-5.5,5.5S670,198.5,670,195.5z"/>
		<path class="st12" d="M631,224.5c0-3,2.5-5.5,5.5-5.5s5.5,2.5,5.5,5.5s-2.5,5.5-5.5,5.5S631,227.5,631,224.5z"/>
		<path class="st12" d="M644,224.5c0-3,2.5-5.5,5.5-5.5s5.5,2.5,5.5,5.5s-2.5,5.5-5.5,5.5S644,227.5,644,224.5z"/>
		<path class="st12" d="M657,224.5c0-3,2.5-5.5,5.5-5.5s5.5,2.5,5.5,5.5s-2.5,5.5-5.5,5.5S657,227.5,657,224.5z"/>
		<path class="st12" d="M670,224.5c0-3,2.5-5.5,5.5-5.5s5.5,2.5,5.5,5.5s-2.5,5.5-5.5,5.5S670,227.5,670,224.5z"/>
		<path class="st12" d="M631,253.5c0-3,2.5-5.5,5.5-5.5s5.5,2.5,5.5,5.5s-2.5,5.5-5.5,5.5S631,256.5,631,253.5z"/>
		<path class="st12" d="M644,253.5c0-3,2.5-5.5,5.5-5.5s5.5,2.5,5.5,5.5s-2.5,5.5-5.5,5.5S644,256.5,644,253.5z"/>
		<path class="st12" d="M657,253.5c0-3,2.5-5.5,5.5-5.5s5.5,2.5,5.5,5.5s-2.5,5.5-5.5,5.5S657,256.5,657,253.5z"/>
		<path class="st12" d="M670,253.5c0-3,2.5-5.5,5.5-5.5s5.5,2.5,5.5,5.5s-2.5,5.5-5.5,5.5S670,256.5,670,253.5z"/>
		<path class="st12" d="M631,282.5c0-3,2.5-5.5,5.5-5.5s5.5,2.5,5.5,5.5s-2.5,5.5-5.5,5.5S631,285.5,631,282.5z"/>
		<path class="st12" d="M644,282.5c0-3,2.5-5.5,5.5-5.5s5.5,2.5,5.5,5.5s-2.5,5.5-5.5,5.5S644,285.5,644,282.5z"/>
		<path class="st12" d="M657,282.5c0-3,2.5-5.5,5.5-5.5s5.5,2.5,5.5,5.5s-2.5,5.5-5.5,5.5S657,285.5,657,282.5z"/>
		<path class="st12" d="M670,282.5c0-3,2.5-5.5,5.5-5.5s5.5,2.5,5.5,5.5s-2.5,5.5-5.5,5.5S670,285.5,670,282.5z"/>
		<path class="st4" d="M697.5,14.5c9.7,0,17.5,1.3,17.5,2.9v135.2c0,1.6,7.8,2.9,17.5,2.9c-9.7,0-17.5,1.3-17.5,2.9v133.2
			c0,1.6-7.8,2.9-17.5,2.9"/>
		<path class="st12" d="M742,97.5c0-3,2.5-5.5,5.5-5.5s5.5,2.5,5.5,5.5s-2.5,5.5-5.5,5.5S742,100.5,742,97.5z"/>
		<path class="st12" d="M755,97.5c0-3,2.5-5.5,5.5-5.5s5.5,2.5,5.5,5.5s-2.5,5.5-5.5,5.5S755,100.5,755,97.5z"/>
		<path class="st12" d="M768,97.5c0-3,2.5-5.5,5.5-5.5s5.5,2.5,5.5,5.5s-2.5,5.5-5.5,5.5S768,100.5,768,97.5z"/>
		<path class="st12" d="M781,97.5c0-3,2.5-5.5,5.5-5.5s5.5,2.5,5.5,5.5s-2.5,5.5-5.5,5.5S781,100.5,781,97.5z"/>
		<path class="st12" d="M742,110.5c0-3,2.5-5.5,5.5-5.5s5.5,2.5,5.5,5.5s-2.5,5.5-5.5,5.5S742,113.5,742,110.5z"/>
		<path class="st12" d="M755,110.5c0-3,2.5-5.5,5.5-5.5s5.5,2.5,5.5,5.5s-2.5,5.5-5.5,5.5S755,113.5,755,110.5z"/>
		<path class="st12" d="M768,110.5c0-3,2.5-5.5,5.5-5.5s5.5,2.5,5.5,5.5s-2.5,5.5-5.5,5.5S768,113.5,768,110.5z"/>
		<path class="st12" d="M781,110.5c0-3,2.5-5.5,5.5-5.5s5.5,2.5,5.5,5.5s-2.5,5.5-5.5,5.5S781,113.5,781,110.5z"/>
		<path class="st12" d="M742,123.5c0-3,2.5-5.5,5.5-5.5s5.5,2.5,5.5,5.5s-2.5,5.5-5.5,5.5S742,126.5,742,123.5z"/>
		<path class="st12" d="M755,123.5c0-3,2.5-5.5,5.5-5.5s5.5,2.5,5.5,5.5s-2.5,5.5-5.5,5.5S755,126.5,755,123.5z"/>
		<path class="st12" d="M768,123.5c0-3,2.5-5.5,5.5-5.5s5.5,2.5,5.5,5.5s-2.5,5.5-5.5,5.5S768,126.5,768,123.5z"/>
		<path class="st12" d="M781,123.5c0-3,2.5-5.5,5.5-5.5s5.5,2.5,5.5,5.5s-2.5,5.5-5.5,5.5S781,126.5,781,123.5z"/>
		<path class="st12" d="M742,136.5c0-3,2.5-5.5,5.5-5.5s5.5,2.5,5.5,5.5s-2.5,5.5-5.5,5.5S742,139.5,742,136.5z"/>
		<path class="st12" d="M755,136.5c0-3,2.5-5.5,5.5-5.5s5.5,2.5,5.5,5.5s-2.5,5.5-5.5,5.5S755,139.5,755,136.5z"/>
		<path class="st12" d="M768,136.5c0-3,2.5-5.5,5.5-5.5s5.5,2.5,5.5,5.5s-2.5,5.5-5.5,5.5S768,139.5,768,136.5z"/>
		<path class="st12" d="M781,136.5c0-3,2.5-5.5,5.5-5.5s5.5,2.5,5.5,5.5s-2.5,5.5-5.5,5.5S781,139.5,781,136.5z"/>
		<path class="st12" d="M742,148.5c0-3,2.5-5.5,5.5-5.5s5.5,2.5,5.5,5.5s-2.5,5.5-5.5,5.5S742,151.5,742,148.5z"/>
		<path class="st12" d="M755,148.5c0-3,2.5-5.5,5.5-5.5s5.5,2.5,5.5,5.5s-2.5,5.5-5.5,5.5S755,151.5,755,148.5z"/>
		<path class="st12" d="M768,148.5c0-3,2.5-5.5,5.5-5.5s5.5,2.5,5.5,5.5s-2.5,5.5-5.5,5.5S768,151.5,768,148.5z"/>
		<path class="st12" d="M781,148.5c0-3,2.5-5.5,5.5-5.5s5.5,2.5,5.5,5.5s-2.5,5.5-5.5,5.5S781,151.5,781,148.5z"/>
		<path class="st12" d="M742,161.5c0-3,2.5-5.5,5.5-5.5s5.5,2.5,5.5,5.5s-2.5,5.5-5.5,5.5S742,164.5,742,161.5z"/>
		<path class="st12" d="M755,161.5c0-3,2.5-5.5,5.5-5.5s5.5,2.5,5.5,5.5s-2.5,5.5-5.5,5.5S755,164.5,755,161.5z"/>
		<path class="st12" d="M768,161.5c0-3,2.5-5.5,5.5-5.5s5.5,2.5,5.5,5.5s-2.5,5.5-5.5,5.5S768,164.5,768,161.5z"/>
		<path class="st12" d="M781,161.5c0-3,2.5-5.5,5.5-5.5s5.5,2.5,5.5,5.5s-2.5,5.5-5.5,5.5S781,164.5,781,161.5z"/>
		<path class="st12" d="M742,173.5c0-3,2.5-5.5,5.5-5.5s5.5,2.5,5.5,5.5s-2.5,5.5-5.5,5.5S742,176.5,742,173.5z"/>
		<path class="st12" d="M768,173.5c0-3,2.5-5.5,5.5-5.5s5.5,2.5,5.5,5.5s-2.5,5.5-5.5,5.5S768,176.5,768,173.5z"/>
		<path class="st12" d="M781,173.5c0-3,2.5-5.5,5.5-5.5s5.5,2.5,5.5,5.5s-2.5,5.5-5.5,5.5S781,176.5,781,173.5z"/>
		<path class="st12" d="M742,186.5c0-3,2.5-5.5,5.5-5.5s5.5,2.5,5.5,5.5s-2.5,5.5-5.5,5.5S742,189.5,742,186.5z"/>
		<path class="st12" d="M755,186.5c0-3,2.5-5.5,5.5-5.5s5.5,2.5,5.5,5.5s-2.5,5.5-5.5,5.5S755,189.5,755,186.5z"/>
		<path class="st12" d="M781,186.5c0-3,2.5-5.5,5.5-5.5s5.5,2.5,5.5,5.5s-2.5,5.5-5.5,5.5S781,189.5,781,186.5z"/>
		<path class="st12" d="M742,199.5c0-3,2.5-5.5,5.5-5.5s5.5,2.5,5.5,5.5s-2.5,5.5-5.5,5.5S742,202.5,742,199.5z"/>
		<path class="st12" d="M755,199.5c0-3,2.5-5.5,5.5-5.5s5.5,2.5,5.5,5.5s-2.5,5.5-5.5,5.5S755,202.5,755,199.5z"/>
		<path class="st12" d="M768,199.5c0-3,2.5-5.5,5.5-5.5s5.5,2.5,5.5,5.5s-2.5,5.5-5.5,5.5S768,202.5,768,199.5z"/>
		<path class="st12" d="M781,199.5c0-3,2.5-5.5,5.5-5.5s5.5,2.5,5.5,5.5s-2.5,5.5-5.5,5.5S781,202.5,781,199.5z"/>
		<path class="st12" d="M742,212.5c0-3,2.5-5.5,5.5-5.5s5.5,2.5,5.5,5.5s-2.5,5.5-5.5,5.5S742,215.5,742,212.5z"/>
		<path class="st12" d="M755,212.5c0-3,2.5-5.5,5.5-5.5s5.5,2.5,5.5,5.5s-2.5,5.5-5.5,5.5S755,215.5,755,212.5z"/>
		<path class="st12" d="M768,212.5c0-3,2.5-5.5,5.5-5.5s5.5,2.5,5.5,5.5s-2.5,5.5-5.5,5.5S768,215.5,768,212.5z"/>
		<path class="st12" d="M781,212.5c0-3,2.5-5.5,5.5-5.5s5.5,2.5,5.5,5.5s-2.5,5.5-5.5,5.5S781,215.5,781,212.5z"/>
		<path class="st12" d="M755,173.5c0-3,2.5-5.5,5.5-5.5s5.5,2.5,5.5,5.5s-2.5,5.5-5.5,5.5S755,176.5,755,173.5z"/>
		<path class="st12" d="M768,186.5c0-3,2.5-5.5,5.5-5.5s5.5,2.5,5.5,5.5s-2.5,5.5-5.5,5.5S768,189.5,768,186.5z"/>
		<rect x="324" y="346" class="st11" width="106" height="67"/>
		<text transform="matrix(1 0 0 1 349 387)" class="st7 st2 st3">CNN</text>
		<path class="st5" d="M430.5,379.2l284.1,0.6l0,0.7l-284.1-0.6L430.5,379.2z M713.3,376.1l8,4l-8,4L713.3,376.1z"/>
		<path class="st13" d="M742,369.5c0-3,2.5-5.5,5.5-5.5s5.5,2.5,5.5,5.5s-2.5,5.5-5.5,5.5S742,372.5,742,369.5z"/>
		<path class="st13" d="M755,369.5c0-3,2.5-5.5,5.5-5.5s5.5,2.5,5.5,5.5s-2.5,5.5-5.5,5.5S755,372.5,755,369.5z"/>
		<path class="st13" d="M781,369.5c0-3,2.5-5.5,5.5-5.5s5.5,2.5,5.5,5.5s-2.5,5.5-5.5,5.5S781,372.5,781,369.5z"/>
		<path class="st13" d="M742,381.5c0-3,2.5-5.5,5.5-5.5s5.5,2.5,5.5,5.5s-2.5,5.5-5.5,5.5S742,384.5,742,381.5z"/>
		<path class="st13" d="M755,381.5c0-3,2.5-5.5,5.5-5.5s5.5,2.5,5.5,5.5s-2.5,5.5-5.5,5.5S755,384.5,755,381.5z"/>
		<path class="st13" d="M768,381.5c0-3,2.5-5.5,5.5-5.5s5.5,2.5,5.5,5.5s-2.5,5.5-5.5,5.5S768,384.5,768,381.5z"/>
		<path class="st13" d="M781,381.5c0-3,2.5-5.5,5.5-5.5s5.5,2.5,5.5,5.5s-2.5,5.5-5.5,5.5S781,384.5,781,381.5z"/>
		<path class="st13" d="M742,394.5c0-3,2.5-5.5,5.5-5.5s5.5,2.5,5.5,5.5s-2.5,5.5-5.5,5.5S742,397.5,742,394.5z"/>
		<path class="st13" d="M755,394.5c0-3,2.5-5.5,5.5-5.5s5.5,2.5,5.5,5.5s-2.5,5.5-5.5,5.5S755,397.5,755,394.5z"/>
		<path class="st13" d="M768,394.5c0-3,2.5-5.5,5.5-5.5s5.5,2.5,5.5,5.5s-2.5,5.5-5.5,5.5S768,397.5,768,394.5z"/>
		<path class="st13" d="M781,394.5c0-3,2.5-5.5,5.5-5.5s5.5,2.5,5.5,5.5s-2.5,5.5-5.5,5.5S781,397.5,781,394.5z"/>
		<path class="st13" d="M768,369.5c0-3,2.5-5.5,5.5-5.5s5.5,2.5,5.5,5.5s-2.5,5.5-5.5,5.5S768,372.5,768,369.5z"/>
		<path class="st4" d="M814.5,155.5c4.7,0,8.5,0.6,8.5,1.4v107.7c0,0.8,3.8,1.4,8.5,1.4c-4.7,0-8.5,0.6-8.5,1.4v107.7
			c0,0.8-3.8,1.4-8.5,1.4"/>
		<path class="st12" d="M861,160.5c0-3,2.5-5.5,5.5-5.5s5.5,2.5,5.5,5.5s-2.5,5.5-5.5,5.5S861,163.5,861,160.5z"/>
		<path class="st12" d="M874,160.5c0-3,2.5-5.5,5.5-5.5s5.5,2.5,5.5,5.5s-2.5,5.5-5.5,5.5S874,163.5,874,160.5z"/>
		<path class="st12" d="M887,160.5c0-3,2.5-5.5,5.5-5.5s5.5,2.5,5.5,5.5s-2.5,5.5-5.5,5.5S887,163.5,887,160.5z"/>
		<path class="st12" d="M900,160.5c0-3,2.5-5.5,5.5-5.5s5.5,2.5,5.5,5.5s-2.5,5.5-5.5,5.5S900,163.5,900,160.5z"/>
		<path class="st12" d="M861,173.5c0-3,2.5-5.5,5.5-5.5s5.5,2.5,5.5,5.5s-2.5,5.5-5.5,5.5S861,176.5,861,173.5z"/>
		<path class="st12" d="M874,173.5c0-3,2.5-5.5,5.5-5.5s5.5,2.5,5.5,5.5s-2.5,5.5-5.5,5.5S874,176.5,874,173.5z"/>
		<path class="st12" d="M887,173.5c0-3,2.5-5.5,5.5-5.5s5.5,2.5,5.5,5.5s-2.5,5.5-5.5,5.5S887,176.5,887,173.5z"/>
		<path class="st12" d="M900,173.5c0-3,2.5-5.5,5.5-5.5s5.5,2.5,5.5,5.5s-2.5,5.5-5.5,5.5S900,176.5,900,173.5z"/>
		<path class="st12" d="M861,186.5c0-3,2.5-5.5,5.5-5.5s5.5,2.5,5.5,5.5s-2.5,5.5-5.5,5.5S861,189.5,861,186.5z"/>
		<path class="st12" d="M874,186.5c0-3,2.5-5.5,5.5-5.5s5.5,2.5,5.5,5.5s-2.5,5.5-5.5,5.5S874,189.5,874,186.5z"/>
		<path class="st12" d="M887,186.5c0-3,2.5-5.5,5.5-5.5s5.5,2.5,5.5,5.5s-2.5,5.5-5.5,5.5S887,189.5,887,186.5z"/>
		<path class="st12" d="M900,186.5c0-3,2.5-5.5,5.5-5.5s5.5,2.5,5.5,5.5s-2.5,5.5-5.5,5.5S900,189.5,900,186.5z"/>
		<path class="st12" d="M861,199.5c0-3,2.5-5.5,5.5-5.5s5.5,2.5,5.5,5.5s-2.5,5.5-5.5,5.5S861,202.5,861,199.5z"/>
		<path class="st12" d="M874,199.5c0-3,2.5-5.5,5.5-5.5s5.5,2.5,5.5,5.5s-2.5,5.5-5.5,5.5S874,202.5,874,199.5z"/>
		<path class="st12" d="M887,199.5c0-3,2.5-5.5,5.5-5.5s5.5,2.5,5.5,5.5s-2.5,5.5-5.5,5.5S887,202.5,887,199.5z"/>
		<path class="st12" d="M900,199.5c0-3,2.5-5.5,5.5-5.5s5.5,2.5,5.5,5.5s-2.5,5.5-5.5,5.5S900,202.5,900,199.5z"/>
		<path class="st12" d="M861,211.5c0-3,2.5-5.5,5.5-5.5s5.5,2.5,5.5,5.5s-2.5,5.5-5.5,5.5S861,214.5,861,211.5z"/>
		<path class="st12" d="M874,211.5c0-3,2.5-5.5,5.5-5.5s5.5,2.5,5.5,5.5s-2.5,5.5-5.5,5.5S874,214.5,874,211.5z"/>
		<path class="st12" d="M887,211.5c0-3,2.5-5.5,5.5-5.5s5.5,2.5,5.5,5.5s-2.5,5.5-5.5,5.5S887,214.5,887,211.5z"/>
		<path class="st12" d="M900,211.5c0-3,2.5-5.5,5.5-5.5s5.5,2.5,5.5,5.5s-2.5,5.5-5.5,5.5S900,214.5,900,211.5z"/>
		<path class="st12" d="M861,224.5c0-3,2.5-5.5,5.5-5.5s5.5,2.5,5.5,5.5s-2.5,5.5-5.5,5.5S861,227.5,861,224.5z"/>
		<path class="st12" d="M874,224.5c0-3,2.5-5.5,5.5-5.5s5.5,2.5,5.5,5.5s-2.5,5.5-5.5,5.5S874,227.5,874,224.5z"/>
		<path class="st12" d="M887,224.5c0-3,2.5-5.5,5.5-5.5s5.5,2.5,5.5,5.5s-2.5,5.5-5.5,5.5S887,227.5,887,224.5z"/>
		<path class="st12" d="M900,224.5c0-3,2.5-5.5,5.5-5.5s5.5,2.5,5.5,5.5s-2.5,5.5-5.5,5.5S900,227.5,900,224.5z"/>
		<path class="st12" d="M861,236.5c0-3,2.5-5.5,5.5-5.5s5.5,2.5,5.5,5.5s-2.5,5.5-5.5,5.5S861,239.5,861,236.5z"/>
		<path class="st12" d="M887,236.5c0-3,2.5-5.5,5.5-5.5s5.5,2.5,5.5,5.5s-2.5,5.5-5.5,5.5S887,239.5,887,236.5z"/>
		<path class="st12" d="M900,236.5c0-3,2.5-5.5,5.5-5.5s5.5,2.5,5.5,5.5s-2.5,5.5-5.5,5.5S900,239.5,900,236.5z"/>
		<path class="st12" d="M861,249.5c0-3,2.5-5.5,5.5-5.5s5.5,2.5,5.5,5.5s-2.5,5.5-5.5,5.5S861,252.5,861,249.5z"/>
		<path class="st12" d="M874,249.5c0-3,2.5-5.5,5.5-5.5s5.5,2.5,5.5,5.5s-2.5,5.5-5.5,5.5S874,252.5,874,249.5z"/>
		<path class="st12" d="M900,249.5c0-3,2.5-5.5,5.5-5.5s5.5,2.5,5.5,5.5s-2.5,5.5-5.5,5.5S900,252.5,900,249.5z"/>
		<path class="st12" d="M861,262.5c0-3,2.5-5.5,5.5-5.5s5.5,2.5,5.5,5.5s-2.5,5.5-5.5,5.5S861,265.5,861,262.5z"/>
		<path class="st12" d="M874,262.5c0-3,2.5-5.5,5.5-5.5s5.5,2.5,5.5,5.5s-2.5,5.5-5.5,5.5S874,265.5,874,262.5z"/>
		<path class="st12" d="M887,262.5c0-3,2.5-5.5,5.5-5.5s5.5,2.5,5.5,5.5s-2.5,5.5-5.5,5.5S887,265.5,887,262.5z"/>
		<path class="st12" d="M900,262.5c0-3,2.5-5.5,5.5-5.5s5.5,2.5,5.5,5.5s-2.5,5.5-5.5,5.5S900,265.5,900,262.5z"/>
		<path class="st12" d="M861,275.5c0-3,2.5-5.5,5.5-5.5s5.5,2.5,5.5,5.5s-2.5,5.5-5.5,5.5S861,278.5,861,275.5z"/>
		<path class="st12" d="M874,275.5c0-3,2.5-5.5,5.5-5.5s5.5,2.5,5.5,5.5s-2.5,5.5-5.5,5.5S874,278.5,874,275.5z"/>
		<path class="st12" d="M887,275.5c0-3,2.5-5.5,5.5-5.5s5.5,2.5,5.5,5.5s-2.5,5.5-5.5,5.5S887,278.5,887,275.5z"/>
		<path class="st12" d="M900,275.5c0-3,2.5-5.5,5.5-5.5s5.5,2.5,5.5,5.5s-2.5,5.5-5.5,5.5S900,278.5,900,275.5z"/>
		<path class="st12" d="M874,236.5c0-3,2.5-5.5,5.5-5.5s5.5,2.5,5.5,5.5s-2.5,5.5-5.5,5.5S874,239.5,874,236.5z"/>
		<path class="st12" d="M887,249.5c0-3,2.5-5.5,5.5-5.5s5.5,2.5,5.5,5.5s-2.5,5.5-5.5,5.5S887,252.5,887,249.5z"/>
		<path class="st13" d="M861,289.5c0-3,2.5-5.5,5.5-5.5s5.5,2.5,5.5,5.5s-2.5,5.5-5.5,5.5S861,292.5,861,289.5z"/>
		<path class="st13" d="M874,289.5c0-3,2.5-5.5,5.5-5.5s5.5,2.5,5.5,5.5s-2.5,5.5-5.5,5.5S874,292.5,874,289.5z"/>
		<path class="st13" d="M900,289.5c0-3,2.5-5.5,5.5-5.5s5.5,2.5,5.5,5.5s-2.5,5.5-5.5,5.5S900,292.5,900,289.5z"/>
		<path class="st13" d="M861,301.5c0-3,2.5-5.5,5.5-5.5s5.5,2.5,5.5,5.5s-2.5,5.5-5.5,5.5S861,304.5,861,301.5z"/>
		<path class="st13" d="M874,301.5c0-3,2.5-5.5,5.5-5.5s5.5,2.5,5.5,5.5s-2.5,5.5-5.5,5.5S874,304.5,874,301.5z"/>
		<path class="st13" d="M887,301.5c0-3,2.5-5.5,5.5-5.5s5.5,2.5,5.5,5.5s-2.5,5.5-5.5,5.5S887,304.5,887,301.5z"/>
		<path class="st13" d="M900,301.5c0-3,2.5-5.5,5.5-5.5s5.5,2.5,5.5,5.5s-2.5,5.5-5.5,5.5S900,304.5,900,301.5z"/>
		<path class="st13" d="M861,314.5c0-3,2.5-5.5,5.5-5.5s5.5,2.5,5.5,5.5s-2.5,5.5-5.5,5.5S861,317.5,861,314.5z"/>
		<path class="st13" d="M874,314.5c0-3,2.5-5.5,5.5-5.5s5.5,2.5,5.5,5.5s-2.5,5.5-5.5,5.5S874,317.5,874,314.5z"/>
		<path class="st13" d="M887,314.5c0-3,2.5-5.5,5.5-5.5s5.5,2.5,5.5,5.5s-2.5,5.5-5.5,5.5S887,317.5,887,314.5z"/>
		<path class="st13" d="M900,314.5c0-3,2.5-5.5,5.5-5.5s5.5,2.5,5.5,5.5s-2.5,5.5-5.5,5.5S900,317.5,900,314.5z"/>
		<path class="st13" d="M887,289.5c0-3,2.5-5.5,5.5-5.5s5.5,2.5,5.5,5.5s-2.5,5.5-5.5,5.5S887,292.5,887,289.5z"/>
		<path class="st5" d="M916.5,237.2h35v0.7h-35V237.2z M950.2,233.5l8,4l-8,4V233.5z"/>
		<path class="st14" d="M1073,190.2v93.7l-19.2,19.2H958l0,0V171l0,0h95.8L1073,190.2z"/>
		<text transform="matrix(1 0 0 1 983.3905 245.7796)" class="st7 st2 st3">LSTM</text>
		<text transform="matrix(1 0 0 1 26.1556 340)" class="st2 st15">Annotated </text>
		<text transform="matrix(1 0 0 1 36.4089 357)" class="st2 st15">Caption</text>
		<path class="st4" d="M59.5,366.5l0,98.1"/>
		<path class="st4" d="M59.5,464.5h946.6"/>
		<path class="st5" d="M1006.8,464.9l0-154.8h-0.7l0,154.8H1006.8z M1010.5,311.5l-4-8l-4,8H1010.5z"/>
		<path class="st5" d="M1073.5,237.2h35.2v0.7h-35.2V237.2z M1107.3,233.5l8,4l-8,4V233.5z"/>
		<text transform="matrix(1 0 0 1 1122.2 242)" class="st2 st16">Generated Caption</text>
		<text transform="matrix(1 0 0 1 597.681 311)" class="st2 st17"> </text>
		<text transform="matrix(1 0 0 1 733.6603 236)" class="st2 st18">Stacked</text>
		<text transform="matrix(1 0 0 1 769.8273 236)" class="st2 st18">  LLAR</text>
		<text transform="matrix(1 0 0 1 735.5732 249)" class="st2 st18">Embeddings </text>
		<text transform="matrix(1 0 0 1 734.9063 262)" class="st2 st18">of dimension</text>
		<text transform="matrix(1 0 0 1 744.0732 274)" class="st2 st18">(10,2048)</text>
		<text transform="matrix(1 0 0 1 349 430)" class="st8 st19">ResNet-152</text>
		<text transform="matrix(1 0 0 1 456.0405 306)"><tspan x="0" y="0" class="st8 st19">Object level </tspan><tspan x="6.5" y="14.4" class="st8 st19">attention </tspan><tspan x="12.2" y="28.8" class="st8 st19">regions</tspan></text>
		<text transform="matrix(1 0 0 1 597.4854 306)"><tspan x="0" y="0" class="st8 st19">10 LLAR embeddings of </tspan><tspan x="12.7" y="14.4" class="st8 st19">dimension (1,2048)</tspan></text>
		<text transform="matrix(1 0 0 1 828.3213 333)"><tspan x="0" y="0" class="st8 st20">Concatenation of LLAR and </tspan><tspan x="1.3" y="12" class="st8 st20">HLAR embeddings to form </tspan><tspan x="3.8" y="24" class="st8 st20">embedding dimension of </tspan><tspan x="34.8" y="36" class="st8 st20">(206, 2048)</tspan></text>
		<polygon style="fill:none;" points="998,567 1001,567 1001,567 998,567 		"/>
		<text transform="matrix(1 0 0 1 729.7129 414.8574)"><tspan x="0" y="0" class="st8 st20">HLAR produced by </tspan><tspan x="-3.9" y="12" class="st8 st20">convoluation layer of</tspan><tspan x="15.2" y="24" class="st8 st20">ResNet-152 </tspan></text>
		<path class="st5" d="M430.8,150.4l42.8-122.5l-0.6-0.2l-42.8,122.5L430.8,150.4z M476.6,30.4l-1.1-8.9l-6.4,6.2L476.6,30.4z"/>
	</g>
</g>
</svg>
