<?xml version="1.0" encoding="utf-8"?>
<!-- Generator: Adobe Illustrator 23.0.1, SVG Export Plug-In . SVG Version: 6.00 Build 0)  -->
<svg version="1.1" id="Layer_1" xmlns="http://www.w3.org/2000/svg" xmlns:xlink="http://www.w3.org/1999/xlink" x="0px" y="0px"
	 viewBox="0 0 1048 366.6" style="enable-background:new 0 0 1048 366.6;" xml:space="preserve">
<style type="text/css">
	.st0{clip-path:url(#SVGID_2_);}
	.st1{fill-rule:evenodd;clip-rule:evenodd;fill:#FFFFFF;stroke:#2F528F;stroke-width:1.3333;stroke-miterlimit:8;}
	.st2{font-family:'ArialMT';}
	.st3{font-size:24px;}
	.st4{fill:#262626;}
	.st5{fill-rule:evenodd;clip-rule:evenodd;fill:#9DC3E6;}
	.st6{fill:#FFFFFF;}
	.st7{font-family:'MyriadPro-Regular';}
	.st8{font-size:14px;}
	.st9{fill-rule:evenodd;clip-rule:evenodd;fill:#FFE699;}
	.st10{fill:#F4B183;}
	.st11{fill-rule:evenodd;clip-rule:evenodd;fill:#C55A11;}
	.st12{fill:none;stroke:#262626;stroke-width:0.6667;stroke-miterlimit:8;}
	.st13{fill-rule:evenodd;clip-rule:evenodd;fill:#548235;}
	.st14{font-size:15px;}
	.st15{font-size:16px;}
	.st16{font-size:13px;}
	.st17{font-size:11px;}
	.st18{font-size:12px;}
</style>
<g>
	<defs>
		<rect id="SVGID_1_" x="-102.9" y="-65" width="1280" height="720"/>
	</defs>
	<clipPath id="SVGID_2_">
		<use xlink:href="#SVGID_1_"  style="overflow:visible;"/>
	</clipPath>
	<g class="st0">
		<path class="st1" d="M7.6,114.2c0-10.1,8.2-18.3,18.3-18.3h73.3c10.1,0,18.3,8.2,18.3,18.3v73.3c0,10.1-8.2,18.3-18.3,18.3H25.9
			c-10.1,0-18.3-8.2-18.3-18.3V114.2z"/>
		<text transform="matrix(1 0 0 1 30.8151 157.333)" class="st2 st3">Image</text>
		<path class="st4" d="M117.6,150.2l97.5,0l0,0.7l-97.5,0L117.6,150.2z M213.7,146.5l7.9,4l-7.8,4L213.7,146.5z"/>
		<path class="st5" d="M221.1,117h73l33,33l-33,33h-73V117z"/>
		<text transform="matrix(1 0 0 1 231.4637 154.5497)" class="st6 st7 st8">Faster R-CNN</text>
		<path class="st9" d="M372.1,44c0-1.7,1.3-3,3-3h12c1.7,0,3,1.3,3,3v12c0,1.7-1.3,3-3,3h-12c-1.7,0-3-1.3-3-3V44z"/>
		<path class="st9" d="M372.1,73c0-1.7,1.3-3,3-3h12c1.7,0,3,1.3,3,3v12c0,1.7-1.3,3-3,3h-12c-1.7,0-3-1.3-3-3V73z"/>
		<path class="st9" d="M372.1,102c0-1.7,1.3-3,3-3h12c1.7,0,3,1.3,3,3v12c0,1.7-1.3,3-3,3h-12c-1.7,0-3-1.3-3-3V102z"/>
		<path class="st9" d="M372.1,131c0-1.7,1.3-3,3-3h12c1.7,0,3,1.3,3,3v12c0,1.7-1.3,3-3,3h-12c-1.7,0-3-1.3-3-3V131z"/>
		<path class="st9" d="M372.1,160c0-1.7,1.3-3,3-3h12c1.7,0,3,1.3,3,3v12c0,1.7-1.3,3-3,3h-12c-1.7,0-3-1.3-3-3V160z"/>
		<path class="st9" d="M372.1,189c0-1.7,1.3-3,3-3h12c1.7,0,3,1.3,3,3v12c0,1.7-1.3,3-3,3h-12c-1.7,0-3-1.3-3-3V189z"/>
		<path class="st9" d="M372.1,218c0-1.7,1.3-3,3-3h12c1.7,0,3,1.3,3,3v12c0,1.7-1.3,3-3,3h-12c-1.7,0-3-1.3-3-3V218z"/>
		<path class="st9" d="M372.1,15c0-1.7,1.3-3,3-3h12c1.7,0,3,1.3,3,3v12c0,1.7-1.3,3-3,3h-12c-1.7,0-3-1.3-3-3V15z"/>
		<path class="st9" d="M372.1,247c0-1.7,1.3-3,3-3h12c1.7,0,3,1.3,3,3v12c0,1.7-1.3,3-3,3h-12c-1.7,0-3-1.3-3-3V247z"/>
		<path class="st9" d="M372.1,276c0-1.7,1.3-3,3-3h12c1.7,0,3,1.3,3,3v12c0,1.7-1.3,3-3,3h-12c-1.7,0-3-1.3-3-3V276z"/>
		<path class="st4" d="M327.9,150.4l42.3-93.7l-0.6-0.3l-42.3,93.7L327.9,150.4z M372.9,59.4l-0.4-8.9l-6.9,5.6L372.9,59.4z"/>
		<path class="st4" d="M327.8,150.5l41.4-65.2l-0.6-0.4l-41.4,65.2L327.8,150.5z M371.6,88.4l0.9-8.9l-7.7,4.6L371.6,88.4z"/>
		<path class="st4" d="M327.8,150.6l40.1-37.3l-0.5-0.5l-40.1,37.3L327.8,150.6z M369.4,116.9l3.1-8.4L364,111L369.4,116.9z"/>
		<path class="st4" d="M327.6,150.7l38.6-11l-0.2-0.6l-38.6,11L327.6,150.7z M366,143.5l6.6-6l-8.8-1.6L366,143.5z"/>
		<path class="st4" d="M327.9,150.4l42.8,122.5l-0.6,0.2l-42.8-122.5L327.9,150.4z M373.7,270.4l-1.1,8.9l-6.4-6.2L373.7,270.4z"/>
		<path class="st4" d="M327.9,150.4l42.3,93.7l-0.6,0.3l-42.3-93.7L327.9,150.4z M372.9,241.3l-0.4,8.9l-6.9-5.6L372.9,241.3z"/>
		<path class="st4" d="M327.8,150.3l41.4,65.2l-0.6,0.4l-41.4-65.2L327.8,150.3z M371.6,212.4l0.9,8.9l-7.7-4.6L371.6,212.4z"/>
		<path class="st4" d="M327.8,150.3l40.1,37.3l-0.5,0.5l-40.1-37.3L327.8,150.3z M369.4,184l3.1,8.4l-8.6-2.5L369.4,184z"/>
		<path class="st4" d="M327.6,150.2l38.6,11l-0.2,0.6l-38.6-11L327.6,150.2z M366,157.3l6.6,6l-8.8,1.6L366,157.3z"/>
		<rect x="417.1" y="41" class="st10" width="74" height="18"/>
		<text transform="matrix(1 0 0 1 437.0559 56)" class="st6 st2 st8">CNN</text>
		<rect x="417.1" y="70" class="st10" width="74" height="18"/>
		<text transform="matrix(1 0 0 1 437.0559 85)" class="st6 st2 st8">CNN</text>
		<rect x="417.1" y="100" class="st10" width="74" height="18"/>
		<text transform="matrix(1 0 0 1 437.0559 115)" class="st6 st2 st8">CNN</text>
		<rect x="417.1" y="128" class="st10" width="74" height="18"/>
		<text transform="matrix(1 0 0 1 437.0559 143)" class="st6 st2 st8">CNN</text>
		<rect x="417.1" y="11" class="st10" width="74" height="18"/>
		<text transform="matrix(1 0 0 1 437.0549 26)" class="st6 st2 st8">CNN</text>
		<rect x="417.1" y="157" class="st10" width="74" height="18"/>
		<text transform="matrix(1 0 0 1 437.0559 172)" class="st6 st2 st8">CNN</text>
		<rect x="417.1" y="186" class="st10" width="74" height="18"/>
		<text transform="matrix(1 0 0 1 437.0559 201)" class="st6 st2 st8">CNN</text>
		<rect x="417.1" y="215" class="st10" width="74" height="18"/>
		<text transform="matrix(1 0 0 1 437.0559 230)" class="st6 st2 st8">CNN</text>
		<rect x="417.1" y="244" class="st10" width="74" height="18"/>
		<text transform="matrix(1 0 0 1 437.0559 259)" class="st6 st2 st8">CNN</text>
		<rect x="417.1" y="273" class="st10" width="74" height="18"/>
		<text transform="matrix(1 0 0 1 437.0559 288)" class="st6 st2 st8">CNN</text>
		<path class="st4" d="M390.6,21.6l20.3-0.6l0-0.7l-20.3,0.6L390.6,21.6z M409.7,24.7l7.9-4.2l-8.1-3.8L409.7,24.7z"/>
		<path class="st4" d="M390.6,49.2h20.3v0.7h-20.3V49.2z M409.6,45.5l8,4l-8,4V45.5z"/>
		<path class="st4" d="M390.6,79.2h20.3v0.7h-20.3V79.2z M409.6,75.5l8,4l-8,4V75.5z"/>
		<path class="st4" d="M390.6,108.2h20.3v0.7h-20.3V108.2z M409.6,104.5l8,4l-8,4V104.5z"/>
		<path class="st4" d="M390.6,137.2h20.3v0.7h-20.3V137.2z M409.6,133.5l8,4l-8,4V133.5z"/>
		<path class="st4" d="M389.6,166.2h20.3v0.7h-20.3V166.2z M408.6,162.5l8,4l-8,4V162.5z"/>
		<path class="st4" d="M389.6,195.2h20.3v0.7h-20.3V195.2z M408.6,191.5l8,4l-8,4V191.5z"/>
		<path class="st4" d="M390.6,224.2h20.3v0.7h-20.3V224.2z M409.6,220.5l8,4l-8,4V220.5z"/>
		<path class="st4" d="M390.6,253.2h20.3v0.7h-20.3V253.2z M409.6,249.5l8,4l-8,4V249.5z"/>
		<path class="st4" d="M391.6,282.2h20.3v0.7h-20.3V282.2z M410.6,278.5l8,4l-8,4V278.5z"/>
		<path class="st4" d="M491.6,21.2l20.3,0v0.7l-20.3,0V21.2z M510.6,17.5l8,4l-8,4V17.5z"/>
		<path class="st4" d="M491.6,49.2h20.3v0.7h-20.3V49.2z M510.6,45.5l8,4l-8,4V45.5z"/>
		<path class="st4" d="M491.6,79.2h20.3v0.7h-20.3V79.2z M510.6,75.5l8,4l-8,4V75.5z"/>
		<path class="st4" d="M491.6,108.2h20.3v0.7h-20.3V108.2z M510.6,104.5l8,4l-8,4V104.5z"/>
		<path class="st4" d="M491.6,137.2h20.3v0.7h-20.3V137.2z M510.6,133.5l8,4l-8,4V133.5z"/>
		<path class="st4" d="M491.6,166.2h20.3v0.7h-20.3V166.2z M510.6,162.5l8,4l-8,4V162.5z"/>
		<path class="st4" d="M491.6,195.2h20.3v0.7h-20.3V195.2z M510.6,191.5l8,4l-8,4V191.5z"/>
		<path class="st4" d="M491.6,224.2h20.3v0.7h-20.3V224.2z M510.6,220.5l8,4l-8,4V220.5z"/>
		<path class="st4" d="M491.6,253.2h20.3v0.7h-20.3V253.2z M510.6,249.5l8,4l-8,4V249.5z"/>
		<path class="st4" d="M491.6,282.2h20.3v0.7h-20.3V282.2z M510.6,278.5l8,4l-8,4V278.5z"/>
		<path class="st11" d="M528.1,20.5c0-3,2.5-5.5,5.5-5.5s5.5,2.5,5.5,5.5s-2.5,5.5-5.5,5.5S528.1,23.5,528.1,20.5z"/>
		<path class="st11" d="M541.1,20.5c0-3,2.5-5.5,5.5-5.5s5.5,2.5,5.5,5.5s-2.5,5.5-5.5,5.5S541.1,23.5,541.1,20.5z"/>
		<path class="st11" d="M554.1,20.5c0-3,2.5-5.5,5.5-5.5s5.5,2.5,5.5,5.5s-2.5,5.5-5.5,5.5S554.1,23.5,554.1,20.5z"/>
		<path class="st11" d="M567.1,20.5c0-3,2.5-5.5,5.5-5.5s5.5,2.5,5.5,5.5s-2.5,5.5-5.5,5.5S567.1,23.5,567.1,20.5z"/>
		<path class="st11" d="M528.1,48.5c0-3,2.5-5.5,5.5-5.5s5.5,2.5,5.5,5.5s-2.5,5.5-5.5,5.5S528.1,51.5,528.1,48.5z"/>
		<path class="st11" d="M541.1,48.5c0-3,2.5-5.5,5.5-5.5s5.5,2.5,5.5,5.5s-2.5,5.5-5.5,5.5S541.1,51.5,541.1,48.5z"/>
		<path class="st11" d="M554.1,48.5c0-3,2.5-5.5,5.5-5.5s5.5,2.5,5.5,5.5s-2.5,5.5-5.5,5.5S554.1,51.5,554.1,48.5z"/>
		<path class="st11" d="M567.1,48.5c0-3,2.5-5.5,5.5-5.5s5.5,2.5,5.5,5.5s-2.5,5.5-5.5,5.5S567.1,51.5,567.1,48.5z"/>
		<path class="st11" d="M528.1,79.5c0-3,2.5-5.5,5.5-5.5s5.5,2.5,5.5,5.5s-2.5,5.5-5.5,5.5S528.1,82.5,528.1,79.5z"/>
		<path class="st11" d="M541.1,79.5c0-3,2.5-5.5,5.5-5.5s5.5,2.5,5.5,5.5s-2.5,5.5-5.5,5.5S541.1,82.5,541.1,79.5z"/>
		<path class="st11" d="M554.1,79.5c0-3,2.5-5.5,5.5-5.5s5.5,2.5,5.5,5.5s-2.5,5.5-5.5,5.5S554.1,82.5,554.1,79.5z"/>
		<path class="st11" d="M567.1,79.5c0-3,2.5-5.5,5.5-5.5s5.5,2.5,5.5,5.5s-2.5,5.5-5.5,5.5S567.1,82.5,567.1,79.5z"/>
		<path class="st11" d="M528.1,109.5c0-3,2.5-5.5,5.5-5.5s5.5,2.5,5.5,5.5s-2.5,5.5-5.5,5.5S528.1,112.5,528.1,109.5z"/>
		<path class="st11" d="M541.1,109.5c0-3,2.5-5.5,5.5-5.5s5.5,2.5,5.5,5.5s-2.5,5.5-5.5,5.5S541.1,112.5,541.1,109.5z"/>
		<path class="st11" d="M554.1,109.5c0-3,2.5-5.5,5.5-5.5s5.5,2.5,5.5,5.5s-2.5,5.5-5.5,5.5S554.1,112.5,554.1,109.5z"/>
		<path class="st11" d="M567.1,109.5c0-3,2.5-5.5,5.5-5.5s5.5,2.5,5.5,5.5s-2.5,5.5-5.5,5.5S567.1,112.5,567.1,109.5z"/>
		<path class="st11" d="M528.1,137.5c0-3,2.5-5.5,5.5-5.5s5.5,2.5,5.5,5.5s-2.5,5.5-5.5,5.5S528.1,140.5,528.1,137.5z"/>
		<path class="st11" d="M541.1,137.5c0-3,2.5-5.5,5.5-5.5s5.5,2.5,5.5,5.5s-2.5,5.5-5.5,5.5S541.1,140.5,541.1,137.5z"/>
		<path class="st11" d="M554.1,137.5c0-3,2.5-5.5,5.5-5.5s5.5,2.5,5.5,5.5s-2.5,5.5-5.5,5.5S554.1,140.5,554.1,137.5z"/>
		<path class="st11" d="M567.1,137.5c0-3,2.5-5.5,5.5-5.5s5.5,2.5,5.5,5.5s-2.5,5.5-5.5,5.5S567.1,140.5,567.1,137.5z"/>
		<path class="st11" d="M528.1,166.5c0-3,2.5-5.5,5.5-5.5s5.5,2.5,5.5,5.5s-2.5,5.5-5.5,5.5S528.1,169.5,528.1,166.5z"/>
		<path class="st11" d="M541.1,166.5c0-3,2.5-5.5,5.5-5.5s5.5,2.5,5.5,5.5s-2.5,5.5-5.5,5.5S541.1,169.5,541.1,166.5z"/>
		<path class="st11" d="M554.1,166.5c0-3,2.5-5.5,5.5-5.5s5.5,2.5,5.5,5.5s-2.5,5.5-5.5,5.5S554.1,169.5,554.1,166.5z"/>
		<path class="st11" d="M567.1,166.5c0-3,2.5-5.5,5.5-5.5s5.5,2.5,5.5,5.5s-2.5,5.5-5.5,5.5S567.1,169.5,567.1,166.5z"/>
		<path class="st11" d="M528.1,195.5c0-3,2.5-5.5,5.5-5.5s5.5,2.5,5.5,5.5s-2.5,5.5-5.5,5.5S528.1,198.5,528.1,195.5z"/>
		<path class="st11" d="M541.1,195.5c0-3,2.5-5.5,5.5-5.5s5.5,2.5,5.5,5.5s-2.5,5.5-5.5,5.5S541.1,198.5,541.1,195.5z"/>
		<path class="st11" d="M554.1,195.5c0-3,2.5-5.5,5.5-5.5s5.5,2.5,5.5,5.5s-2.5,5.5-5.5,5.5S554.1,198.5,554.1,195.5z"/>
		<path class="st11" d="M567.1,195.5c0-3,2.5-5.5,5.5-5.5s5.5,2.5,5.5,5.5s-2.5,5.5-5.5,5.5S567.1,198.5,567.1,195.5z"/>
		<path class="st11" d="M528.1,224.5c0-3,2.5-5.5,5.5-5.5s5.5,2.5,5.5,5.5s-2.5,5.5-5.5,5.5S528.1,227.5,528.1,224.5z"/>
		<path class="st11" d="M541.1,224.5c0-3,2.5-5.5,5.5-5.5s5.5,2.5,5.5,5.5s-2.5,5.5-5.5,5.5S541.1,227.5,541.1,224.5z"/>
		<path class="st11" d="M554.1,224.5c0-3,2.5-5.5,5.5-5.5s5.5,2.5,5.5,5.5s-2.5,5.5-5.5,5.5S554.1,227.5,554.1,224.5z"/>
		<path class="st11" d="M567.1,224.5c0-3,2.5-5.5,5.5-5.5s5.5,2.5,5.5,5.5s-2.5,5.5-5.5,5.5S567.1,227.5,567.1,224.5z"/>
		<path class="st11" d="M528.1,253.5c0-3,2.5-5.5,5.5-5.5s5.5,2.5,5.5,5.5s-2.5,5.5-5.5,5.5S528.1,256.5,528.1,253.5z"/>
		<path class="st11" d="M541.1,253.5c0-3,2.5-5.5,5.5-5.5s5.5,2.5,5.5,5.5s-2.5,5.5-5.5,5.5S541.1,256.5,541.1,253.5z"/>
		<path class="st11" d="M554.1,253.5c0-3,2.5-5.5,5.5-5.5s5.5,2.5,5.5,5.5s-2.5,5.5-5.5,5.5S554.1,256.5,554.1,253.5z"/>
		<path class="st11" d="M567.1,253.5c0-3,2.5-5.5,5.5-5.5s5.5,2.5,5.5,5.5s-2.5,5.5-5.5,5.5S567.1,256.5,567.1,253.5z"/>
		<path class="st11" d="M528.1,282.5c0-3,2.5-5.5,5.5-5.5s5.5,2.5,5.5,5.5s-2.5,5.5-5.5,5.5S528.1,285.5,528.1,282.5z"/>
		<path class="st11" d="M541.1,282.5c0-3,2.5-5.5,5.5-5.5s5.5,2.5,5.5,5.5s-2.5,5.5-5.5,5.5S541.1,285.5,541.1,282.5z"/>
		<path class="st11" d="M554.1,282.5c0-3,2.5-5.5,5.5-5.5s5.5,2.5,5.5,5.5s-2.5,5.5-5.5,5.5S554.1,285.5,554.1,282.5z"/>
		<path class="st11" d="M567.1,282.5c0-3,2.5-5.5,5.5-5.5s5.5,2.5,5.5,5.5s-2.5,5.5-5.5,5.5S567.1,285.5,567.1,282.5z"/>
		<path class="st12" d="M594.6,14.5c9.7,0,17.5,1.3,17.5,2.9v135.2c0,1.6,7.8,2.9,17.5,2.9c-9.7,0-17.5,1.3-17.5,2.9v133.2
			c0,1.6-7.8,2.9-17.5,2.9"/>
		<path class="st11" d="M639.1,97.5c0-3,2.5-5.5,5.5-5.5s5.5,2.5,5.5,5.5s-2.5,5.5-5.5,5.5S639.1,100.5,639.1,97.5z"/>
		<path class="st11" d="M652.1,97.5c0-3,2.5-5.5,5.5-5.5s5.5,2.5,5.5,5.5s-2.5,5.5-5.5,5.5S652.1,100.5,652.1,97.5z"/>
		<path class="st11" d="M665.1,97.5c0-3,2.5-5.5,5.5-5.5s5.5,2.5,5.5,5.5s-2.5,5.5-5.5,5.5S665.1,100.5,665.1,97.5z"/>
		<path class="st11" d="M678.1,97.5c0-3,2.5-5.5,5.5-5.5s5.5,2.5,5.5,5.5s-2.5,5.5-5.5,5.5S678.1,100.5,678.1,97.5z"/>
		<path class="st11" d="M639.1,110.5c0-3,2.5-5.5,5.5-5.5s5.5,2.5,5.5,5.5s-2.5,5.5-5.5,5.5S639.1,113.5,639.1,110.5z"/>
		<path class="st11" d="M652.1,110.5c0-3,2.5-5.5,5.5-5.5s5.5,2.5,5.5,5.5s-2.5,5.5-5.5,5.5S652.1,113.5,652.1,110.5z"/>
		<path class="st11" d="M665.1,110.5c0-3,2.5-5.5,5.5-5.5s5.5,2.5,5.5,5.5s-2.5,5.5-5.5,5.5S665.1,113.5,665.1,110.5z"/>
		<path class="st11" d="M678.1,110.5c0-3,2.5-5.5,5.5-5.5s5.5,2.5,5.5,5.5s-2.5,5.5-5.5,5.5S678.1,113.5,678.1,110.5z"/>
		<path class="st11" d="M639.1,123.5c0-3,2.5-5.5,5.5-5.5s5.5,2.5,5.5,5.5s-2.5,5.5-5.5,5.5S639.1,126.5,639.1,123.5z"/>
		<path class="st11" d="M652.1,123.5c0-3,2.5-5.5,5.5-5.5s5.5,2.5,5.5,5.5s-2.5,5.5-5.5,5.5S652.1,126.5,652.1,123.5z"/>
		<path class="st11" d="M665.1,123.5c0-3,2.5-5.5,5.5-5.5s5.5,2.5,5.5,5.5s-2.5,5.5-5.5,5.5S665.1,126.5,665.1,123.5z"/>
		<path class="st11" d="M678.1,123.5c0-3,2.5-5.5,5.5-5.5s5.5,2.5,5.5,5.5s-2.5,5.5-5.5,5.5S678.1,126.5,678.1,123.5z"/>
		<path class="st11" d="M639.1,136.5c0-3,2.5-5.5,5.5-5.5s5.5,2.5,5.5,5.5s-2.5,5.5-5.5,5.5S639.1,139.5,639.1,136.5z"/>
		<path class="st11" d="M652.1,136.5c0-3,2.5-5.5,5.5-5.5s5.5,2.5,5.5,5.5s-2.5,5.5-5.5,5.5S652.1,139.5,652.1,136.5z"/>
		<path class="st11" d="M665.1,136.5c0-3,2.5-5.5,5.5-5.5s5.5,2.5,5.5,5.5s-2.5,5.5-5.5,5.5S665.1,139.5,665.1,136.5z"/>
		<path class="st11" d="M678.1,136.5c0-3,2.5-5.5,5.5-5.5s5.5,2.5,5.5,5.5s-2.5,5.5-5.5,5.5S678.1,139.5,678.1,136.5z"/>
		<path class="st11" d="M639.1,148.5c0-3,2.5-5.5,5.5-5.5s5.5,2.5,5.5,5.5s-2.5,5.5-5.5,5.5S639.1,151.5,639.1,148.5z"/>
		<path class="st11" d="M652.1,148.5c0-3,2.5-5.5,5.5-5.5s5.5,2.5,5.5,5.5s-2.5,5.5-5.5,5.5S652.1,151.5,652.1,148.5z"/>
		<path class="st11" d="M665.1,148.5c0-3,2.5-5.5,5.5-5.5s5.5,2.5,5.5,5.5s-2.5,5.5-5.5,5.5S665.1,151.5,665.1,148.5z"/>
		<path class="st11" d="M678.1,148.5c0-3,2.5-5.5,5.5-5.5s5.5,2.5,5.5,5.5s-2.5,5.5-5.5,5.5S678.1,151.5,678.1,148.5z"/>
		<path class="st11" d="M639.1,161.5c0-3,2.5-5.5,5.5-5.5s5.5,2.5,5.5,5.5s-2.5,5.5-5.5,5.5S639.1,164.5,639.1,161.5z"/>
		<path class="st11" d="M652.1,161.5c0-3,2.5-5.5,5.5-5.5s5.5,2.5,5.5,5.5s-2.5,5.5-5.5,5.5S652.1,164.5,652.1,161.5z"/>
		<path class="st11" d="M665.1,161.5c0-3,2.5-5.5,5.5-5.5s5.5,2.5,5.5,5.5s-2.5,5.5-5.5,5.5S665.1,164.5,665.1,161.5z"/>
		<path class="st11" d="M678.1,161.5c0-3,2.5-5.5,5.5-5.5s5.5,2.5,5.5,5.5s-2.5,5.5-5.5,5.5S678.1,164.5,678.1,161.5z"/>
		<path class="st11" d="M639.1,173.5c0-3,2.5-5.5,5.5-5.5s5.5,2.5,5.5,5.5s-2.5,5.5-5.5,5.5S639.1,176.5,639.1,173.5z"/>
		<path class="st11" d="M665.1,173.5c0-3,2.5-5.5,5.5-5.5s5.5,2.5,5.5,5.5s-2.5,5.5-5.5,5.5S665.1,176.5,665.1,173.5z"/>
		<path class="st11" d="M678.1,173.5c0-3,2.5-5.5,5.5-5.5s5.5,2.5,5.5,5.5s-2.5,5.5-5.5,5.5S678.1,176.5,678.1,173.5z"/>
		<path class="st11" d="M639.1,186.5c0-3,2.5-5.5,5.5-5.5s5.5,2.5,5.5,5.5s-2.5,5.5-5.5,5.5S639.1,189.5,639.1,186.5z"/>
		<path class="st11" d="M652.1,186.5c0-3,2.5-5.5,5.5-5.5s5.5,2.5,5.5,5.5s-2.5,5.5-5.5,5.5S652.1,189.5,652.1,186.5z"/>
		<path class="st11" d="M678.1,186.5c0-3,2.5-5.5,5.5-5.5s5.5,2.5,5.5,5.5s-2.5,5.5-5.5,5.5S678.1,189.5,678.1,186.5z"/>
		<path class="st11" d="M639.1,199.5c0-3,2.5-5.5,5.5-5.5s5.5,2.5,5.5,5.5s-2.5,5.5-5.5,5.5S639.1,202.5,639.1,199.5z"/>
		<path class="st11" d="M652.1,199.5c0-3,2.5-5.5,5.5-5.5s5.5,2.5,5.5,5.5s-2.5,5.5-5.5,5.5S652.1,202.5,652.1,199.5z"/>
		<path class="st11" d="M665.1,199.5c0-3,2.5-5.5,5.5-5.5s5.5,2.5,5.5,5.5s-2.5,5.5-5.5,5.5S665.1,202.5,665.1,199.5z"/>
		<path class="st11" d="M678.1,199.5c0-3,2.5-5.5,5.5-5.5s5.5,2.5,5.5,5.5s-2.5,5.5-5.5,5.5S678.1,202.5,678.1,199.5z"/>
		<path class="st11" d="M639.1,212.5c0-3,2.5-5.5,5.5-5.5s5.5,2.5,5.5,5.5s-2.5,5.5-5.5,5.5S639.1,215.5,639.1,212.5z"/>
		<path class="st11" d="M652.1,212.5c0-3,2.5-5.5,5.5-5.5s5.5,2.5,5.5,5.5s-2.5,5.5-5.5,5.5S652.1,215.5,652.1,212.5z"/>
		<path class="st11" d="M665.1,212.5c0-3,2.5-5.5,5.5-5.5s5.5,2.5,5.5,5.5s-2.5,5.5-5.5,5.5S665.1,215.5,665.1,212.5z"/>
		<path class="st11" d="M678.1,212.5c0-3,2.5-5.5,5.5-5.5s5.5,2.5,5.5,5.5s-2.5,5.5-5.5,5.5S678.1,215.5,678.1,212.5z"/>
		<path class="st11" d="M652.1,173.5c0-3,2.5-5.5,5.5-5.5s5.5,2.5,5.5,5.5s-2.5,5.5-5.5,5.5S652.1,176.5,652.1,173.5z"/>
		<path class="st11" d="M665.1,186.5c0-3,2.5-5.5,5.5-5.5s5.5,2.5,5.5,5.5s-2.5,5.5-5.5,5.5S665.1,189.5,665.1,186.5z"/>
		<path class="st4" d="M690.1,157h39.7v0.7h-39.7V157z M728.3,153.2l9.1,4.1l-9.1,4.1V153.2z"/>
		<path class="st13" d="M853.2,110.5v93.7L834,223.3h-95.8l0,0v-132l0,0H834L853.2,110.5z"/>
		<text transform="matrix(1 0 0 1 766.5114 165.0188)" class="st6 st2 st3">LSTM</text>
		<text transform="matrix(1 0 0 1 30.8149 227.5)" class="st2 st14">Annotated </text>
		<text transform="matrix(1 0 0 1 41.0682 244.5)" class="st2 st14">Caption</text>
		<path class="st12" d="M62.6,253l0,98.1"/>
		<path class="st12" d="M62.6,351.6h733.1"/>
		<path class="st4" d="M795.6,351.6l0-123.5h-0.5l0,123.5H795.6z M798.4,229.2l-3-6.4l-3,6.4H798.4z"/>
		<path class="st4" d="M853.2,155.7h35.2v0.7h-35.2V155.7z M887,152l8,4l-8,4V152z"/>
		<text transform="matrix(1 0 0 1 906.9033 161.2967)" class="st2 st15">Generated Caption</text>
		<text transform="matrix(1 0 0 1 494.7359 311)" class="st2 st16"> </text>
		<text transform="matrix(1 0 0 1 630.7152 236)" class="st2 st17">Stacked</text>
		<text transform="matrix(1 0 0 1 666.8822 236)" class="st2 st17">  LLAR</text>
		<text transform="matrix(1 0 0 1 632.6282 249)" class="st2 st17">Embeddings </text>
		<text transform="matrix(1 0 0 1 631.9612 262)" class="st2 st17">of dimension</text>
		<text transform="matrix(1 0 0 1 641.1282 274)" class="st2 st17">(10,2048)</text>
		<text transform="matrix(1 0 0 1 353.0955 306)"><tspan x="0" y="0" class="st7 st18">Object level </tspan><tspan x="6.5" y="14.4" class="st7 st18">attention </tspan><tspan x="12.2" y="28.8" class="st7 st18">regions</tspan></text>
		<text transform="matrix(1 0 0 1 494.5403 306)"><tspan x="0" y="0" class="st7 st18">10 LLAR embeddings of </tspan><tspan x="12.7" y="14.4" class="st7 st18">dimension (1,2048)</tspan></text>
		<polygon style="fill:none;" points="895.1,567 898.1,567 898.1,567 895.1,567 		"/>
		<path class="st4" d="M327.9,150.4l42.8-122.5l-0.6-0.2l-42.8,122.5L327.9,150.4z M373.7,30.4l-1.1-8.9l-6.4,6.2L373.7,30.4z"/>
	</g>
</g>
</svg>
